<?xml version="1.0" encoding="utf-8"?>
<!-- Generator: Adobe Illustrator 21.1.0, SVG Export Plug-In . SVG Version: 6.00 Build 0)  -->
<svg version="1.1" id="Layer_1" xmlns="http://www.w3.org/2000/svg" xmlns:xlink="http://www.w3.org/1999/xlink" x="0px" y="0px"
	 viewBox="0 0 111.5 29" style="enable-background:new 0 0 111.5 29;" xml:space="preserve">
<style type="text/css">
	.st0{fill:#15AB15;}
	.st1{fill:#FFFFFF;}
	.st2{enable-background:new    ;}
</style>
<g id="logo" transform="translate(-13430 -9175.056)">
	<g id="Group_8622" transform="translate(13430 9175.056)">
		<g id="Group_5652" transform="translate(0 0)">
			<g id="Group_5654" transform="translate(0)">
				<g id="Rectangle_4545">
					<path class="st0" d="M14.1,0L14.1,0c7.8,0,14.1,6.3,14.1,14.1c0,0,0,0,0,0l0,0c0,7.8-6.3,14.1-14.1,14.1c0,0,0,0,0,0l0,0
						C6.3,28.2,0,21.9,0,14.1l0,0C0,6.3,6.3,0,14.1,0z"/>
				</g>
			</g>
		</g>
		<g id="Group_5661" transform="translate(4.946 5.564)">
			<g id="Path_7223">
				<path class="st1" d="M4.7,3.1c0.5,0.5,0.9,1.1,1.3,1.6c0.5,0.8,1,1.6,1.4,2.5c0.7,1.7,1.1,3.4,1.2,5.2c0,0.2,0,0.4,0,0.7
					c0,0.5,0,1-0.1,1.5c0,0.1,0,0.2,0,0.3c0,0,0-0.1,0.1-0.1c0.3-0.6,0.5-1.1,0.7-1.7c0.5-1.4,0.7-2.9,0.7-4.4
					c0-0.9-0.1-1.8-0.3-2.7C9.7,5.4,9.5,4.9,9.4,4.3C9.3,4,9.2,3.7,9.1,3.4C8.1,2.9,7.2,2.4,6.2,2C5.6,1.8,5,1.6,4.4,1.4
					C3.7,1.2,2.9,1,2.1,0.9c0.5,0.3,1,0.7,1.5,1.1C4,2.4,4.4,2.7,4.7,3.1z"/>
			</g>
			<g id="Path_7224">
				<path class="st1" d="M6.9,8.2C6.4,6.9,5.8,5.8,5,4.7C4.5,4.6,4,4.5,3.5,4.5C2.8,4.4,2,4.4,1.2,4.4h0c-0.4,0-0.8,0-1.2,0
					c0.3,0.1,0.6,0.3,0.9,0.5c0.6,0.4,1.2,0.8,1.8,1.2c2.4,1.9,4.2,4.4,5.1,7.3c0-0.5,0-0.9-0.1-1.3C7.6,10.7,7.3,9.4,6.9,8.2z"/>
			</g>
			<g id="Path_7225">
				<path class="st1" d="M14.8,2.6c-0.2-0.2-0.4-0.3-0.6-0.4c-1.3-0.9-2.8-1.5-4.3-1.9C9.3,0.2,8.7,0.1,8.2,0
					c0.3,0.3,0.5,0.7,0.7,1.1c0.5,0.9,1,1.8,1.3,2.7c0,0.1,0.1,0.3,0.1,0.4c0.2,0.7,0.4,1.5,0.5,2.2C10.9,7.1,11,7.9,11,8.6
					c0,1.7-0.3,3.4-0.9,5c-0.3,0.9-0.8,1.8-1.3,2.6l-0.1,0.1c-0.2,0.4-0.5,0.7-0.7,1L8,17.5c2.3-0.2,4.5-1,6.4-2.4
					c0.3-0.2,0.6-0.4,0.9-0.7c1.6-1.5,2.6-3.6,2.6-5.7C17.8,6.3,16.7,4.1,14.8,2.6z"/>
			</g>
		</g>
	</g>
	<g id="Group_8621" transform="translate(13462.524 9179.056)">
		<g class="st2">
			<path class="st1" d="M7,7H5.8V3.6c0-0.4,0-0.8,0-1.2h0C5.7,2.8,5.7,3,5.6,3.2L4.3,7h-1L1.9,3.2c0-0.1-0.1-0.4-0.2-0.8h0
				c0,0.6,0.1,1,0.1,1.5V7H0.6V1.4h1.8l1.1,3.3C3.7,5,3.8,5.3,3.8,5.5h0C3.9,5.2,4,4.9,4.1,4.7l1.1-3.3H7V7z"/>
			<path class="st1" d="M9.6,7H8.3V1.4h1.3V7z"/>
			<path class="st1" d="M10.6,6.8V5.5C10.8,5.7,11,5.9,11.3,6s0.5,0.1,0.8,0.1c0.2,0,0.3,0,0.4,0s0.2-0.1,0.3-0.1S13,5.8,13,5.8
				s0.1-0.1,0.1-0.2c0-0.1,0-0.2-0.1-0.3S12.8,5.1,12.7,5s-0.2-0.1-0.4-0.2S12,4.7,11.9,4.6c-0.4-0.2-0.8-0.4-1-0.7s-0.3-0.6-0.3-1
				c0-0.3,0.1-0.5,0.2-0.8s0.3-0.4,0.5-0.5s0.4-0.2,0.7-0.3s0.5-0.1,0.8-0.1c0.3,0,0.6,0,0.8,0.1s0.4,0.1,0.6,0.2v1.2
				c-0.1-0.1-0.2-0.1-0.3-0.2s-0.2-0.1-0.3-0.1s-0.2-0.1-0.3-0.1s-0.2,0-0.3,0c-0.1,0-0.3,0-0.4,0s-0.2,0.1-0.3,0.1S12,2.6,11.9,2.6
				s-0.1,0.1-0.1,0.2c0,0.1,0,0.2,0.1,0.3s0.1,0.1,0.2,0.2s0.2,0.1,0.3,0.2s0.3,0.1,0.4,0.2c0.2,0.1,0.4,0.2,0.6,0.3
				s0.3,0.2,0.5,0.4s0.2,0.3,0.3,0.5s0.1,0.4,0.1,0.6c0,0.3-0.1,0.6-0.2,0.8s-0.3,0.4-0.5,0.5S13.3,7,13,7s-0.6,0.1-0.9,0.1
				c-0.3,0-0.6,0-0.9-0.1S10.8,6.9,10.6,6.8z"/>
			<path class="st1" d="M20.2,7h-1.4l-0.4-1.2h-2L16.1,7h-1.4l2-5.6h1.5L20.2,7z M18.2,4.8l-0.6-1.9c0-0.1-0.1-0.3-0.1-0.5h0
				c0,0.2,0,0.3-0.1,0.5l-0.6,1.9H18.2z"/>
		</g>
		<g class="st2">
			<path class="st1" d="M0.7,20.6v-2.3c0.4,0.4,0.9,0.6,1.4,0.8c0.5,0.2,1,0.3,1.5,0.3c0.3,0,0.6,0,0.8-0.1s0.4-0.1,0.6-0.2
				c0.1-0.1,0.3-0.2,0.3-0.3c0.1-0.1,0.1-0.3,0.1-0.4c0-0.2-0.1-0.4-0.2-0.5c-0.1-0.2-0.3-0.3-0.5-0.4C4.5,17.1,4.3,17,4,16.9
				s-0.6-0.3-0.9-0.4c-0.8-0.3-1.4-0.8-1.8-1.3c-0.4-0.5-0.6-1.1-0.6-1.8c0-0.5,0.1-1,0.3-1.4c0.2-0.4,0.5-0.7,0.9-1
				c0.4-0.3,0.8-0.4,1.3-0.6c0.5-0.1,1-0.2,1.6-0.2c0.5,0,1,0,1.5,0.1c0.4,0.1,0.8,0.2,1.2,0.3v2.2c-0.2-0.1-0.4-0.2-0.6-0.3
				c-0.2-0.1-0.4-0.2-0.6-0.2c-0.2-0.1-0.4-0.1-0.7-0.1s-0.4,0-0.6,0c-0.3,0-0.5,0-0.7,0.1c-0.2,0.1-0.4,0.1-0.6,0.2
				s-0.3,0.2-0.4,0.3c-0.1,0.1-0.1,0.3-0.1,0.4c0,0.2,0,0.3,0.1,0.5c0.1,0.1,0.2,0.3,0.4,0.4c0.2,0.1,0.4,0.2,0.6,0.4
				c0.2,0.1,0.5,0.2,0.8,0.4c0.4,0.2,0.8,0.4,1.1,0.6c0.3,0.2,0.6,0.4,0.9,0.7s0.4,0.5,0.5,0.9c0.1,0.3,0.2,0.7,0.2,1.1
				c0,0.6-0.1,1.1-0.3,1.5c-0.2,0.4-0.5,0.7-0.9,1c-0.4,0.2-0.8,0.4-1.3,0.5c-0.5,0.1-1,0.2-1.6,0.2c-0.6,0-1.1,0-1.6-0.1
				C1.5,20.9,1.1,20.8,0.7,20.6z"/>
			<path class="st1" d="M13.7,20.9c-0.3,0.2-0.9,0.3-1.5,0.3c-1.6,0-2.4-0.8-2.4-2.5v-3.4H8.5v-1.7h1.2v-1.6l2.3-0.7v2.3h1.7v1.7H12
				v3c0,0.8,0.3,1.2,0.9,1.2c0.2,0,0.5-0.1,0.8-0.2V20.9z"/>
			<path class="st1" d="M21.3,21h-2.2v-1.1h0c-0.5,0.8-1.2,1.3-2.2,1.3c-0.7,0-1.3-0.2-1.7-0.6c-0.4-0.4-0.6-1-0.6-1.7
				c0-1.5,0.9-2.3,2.6-2.5l2-0.3c0-0.8-0.4-1.2-1.3-1.2c-0.9,0-1.7,0.3-2.5,0.8v-1.7c0.3-0.2,0.8-0.3,1.3-0.4
				c0.6-0.1,1.1-0.2,1.5-0.2c2.1,0,3.2,1.1,3.2,3.2V21z M19.2,18v-0.5l-1.4,0.2c-0.8,0.1-1.1,0.4-1.1,1c0,0.3,0.1,0.5,0.3,0.6
				c0.2,0.2,0.4,0.3,0.7,0.3c0.4,0,0.8-0.2,1.1-0.5C19,18.8,19.2,18.4,19.2,18z"/>
			<path class="st1" d="M28.2,15.6c-0.3-0.2-0.6-0.2-1-0.2c-0.5,0-0.9,0.2-1.2,0.6c-0.3,0.4-0.4,0.9-0.4,1.5V21h-2.3v-7.5h2.3v1.4h0
				c0.4-1,1-1.5,2-1.5c0.2,0,0.4,0,0.6,0.1V15.6z"/>
			<path class="st1" d="M34.3,20.9c-0.3,0.2-0.9,0.3-1.5,0.3c-1.6,0-2.4-0.8-2.4-2.5v-3.4h-1.2v-1.7h1.2v-1.6l2.3-0.7v2.3h1.7v1.7
				h-1.7v3c0,0.8,0.3,1.2,0.9,1.2c0.2,0,0.5-0.1,0.8-0.2V20.9z"/>
			<path class="st1" d="M36,21V10.5h3.8c1.2,0,2.1,0.2,2.7,0.6c0.6,0.4,0.9,1,0.9,1.8c0,0.6-0.2,1.1-0.6,1.5
				c-0.4,0.4-0.9,0.7-1.5,0.9v0c0.7,0.1,1.3,0.4,1.8,0.8c0.4,0.5,0.7,1,0.7,1.7c0,1-0.3,1.7-1,2.3C42.2,20.7,41.2,21,40,21H36z
				 M38.3,12.2v2.5h1c0.5,0,0.9-0.1,1.2-0.4c0.3-0.2,0.4-0.6,0.4-1c0-0.8-0.6-1.2-1.7-1.2H38.3z M38.3,16.5v2.8h1.3
				c0.5,0,1-0.1,1.3-0.4c0.3-0.3,0.5-0.6,0.5-1c0-0.4-0.2-0.7-0.5-1c-0.3-0.2-0.7-0.4-1.3-0.4H38.3z"/>
			<path class="st1" d="M49.1,21.2c-1.3,0-2.2-0.4-2.9-1.1c-0.7-0.7-1.1-1.7-1.1-2.9c0-1.2,0.4-2.2,1.1-2.9c0.7-0.7,1.7-1.1,3-1.1
				c1.2,0,2.2,0.4,2.9,1.1c0.7,0.7,1.1,1.6,1.1,2.8c0,1.2-0.4,2.2-1.1,3C51.3,20.8,50.3,21.2,49.1,21.2z M49.1,15.1
				c-0.5,0-1,0.2-1.3,0.6s-0.5,0.9-0.5,1.6c0,1.4,0.6,2.2,1.7,2.2c1.1,0,1.7-0.7,1.7-2.2C50.8,15.8,50.2,15.1,49.1,15.1z"/>
			<path class="st1" d="M58.4,21.2c-1.3,0-2.2-0.4-2.9-1.1c-0.7-0.7-1.1-1.7-1.1-2.9c0-1.2,0.4-2.2,1.1-2.9c0.7-0.7,1.7-1.1,3-1.1
				c1.2,0,2.2,0.4,2.9,1.1c0.7,0.7,1.1,1.6,1.1,2.8c0,1.2-0.4,2.2-1.1,3C60.6,20.8,59.6,21.2,58.4,21.2z M58.4,15.1
				c-0.5,0-1,0.2-1.3,0.6s-0.5,0.9-0.5,1.6c0,1.4,0.6,2.2,1.7,2.2c1.1,0,1.7-0.7,1.7-2.2C60.1,15.8,59.5,15.1,58.4,15.1z"/>
			<path class="st1" d="M71.6,21h-2.8l-2.4-3.7h0V21h-2.3V9.9h2.3V17h0l2.2-3.5h2.7L68.7,17L71.6,21z"/>
			<path class="st1" d="M72.1,20.8v-1.9c0.4,0.2,0.8,0.4,1.1,0.5c0.4,0.1,0.7,0.2,1.1,0.2c0.4,0,0.7-0.1,1-0.2
				c0.2-0.1,0.4-0.3,0.4-0.5c0-0.1-0.1-0.3-0.2-0.4c-0.1-0.1-0.2-0.2-0.4-0.3c-0.2-0.1-0.4-0.1-0.6-0.2s-0.4-0.1-0.6-0.2
				c-0.3-0.1-0.6-0.2-0.8-0.4c-0.2-0.1-0.4-0.3-0.6-0.5c-0.2-0.2-0.3-0.4-0.4-0.6c-0.1-0.2-0.1-0.5-0.1-0.8c0-0.4,0.1-0.8,0.3-1.1
				c0.2-0.3,0.4-0.6,0.7-0.7c0.3-0.2,0.7-0.3,1-0.4c0.4-0.1,0.8-0.1,1.2-0.1c0.3,0,0.7,0,1,0.1c0.3,0.1,0.7,0.1,1,0.2v1.8
				c-0.3-0.2-0.6-0.3-0.9-0.4c-0.3-0.1-0.7-0.1-1-0.1c-0.2,0-0.3,0-0.4,0c-0.1,0-0.3,0.1-0.4,0.1c-0.1,0.1-0.2,0.1-0.2,0.2
				c-0.1,0.1-0.1,0.2-0.1,0.3c0,0.1,0,0.3,0.1,0.4s0.2,0.2,0.3,0.3c0.1,0.1,0.3,0.1,0.5,0.2c0.2,0.1,0.3,0.1,0.5,0.2
				c0.3,0.1,0.6,0.2,0.8,0.4c0.2,0.1,0.5,0.3,0.6,0.4c0.2,0.2,0.3,0.4,0.4,0.6c0.1,0.2,0.1,0.5,0.1,0.8c0,0.4-0.1,0.8-0.3,1.1
				c-0.2,0.3-0.4,0.6-0.8,0.8c-0.3,0.2-0.7,0.3-1.1,0.4c-0.4,0.1-0.9,0.1-1.3,0.1C73.6,21.2,72.8,21.1,72.1,20.8z"/>
		</g>
	</g>
</g>
</svg>
